<svg xmlns="http://www.w3.org/2000/svg" viewBox="0 0 669.76 257.96"><defs><style>.cls-1{fill:#7b5e13;}</style></defs><g id="Layer_2" data-name="Layer 2"><g id="Layer_1-2" data-name="Layer 1"><path class="cls-1" d="M334.55,72H313.92A16.91,16.91,0,0,0,297,88.92V84.45A12.44,12.44,0,0,0,284.55,72H263.92A16.91,16.91,0,0,0,247,88.92V63L224,77v35H209l-14,23h52V95h27v17H263v23h34V95h27v40h23V84.45A12.44,12.44,0,0,0,334.55,72Z"/><path class="cls-1" d="M574,84.45V135H551V95H524v40H490V112h11V95H474v40H422l1.14-1.88c3.79-2.72,6.5-7.27,8-13.08l4.89-8h15V77l23-14V88.92A16.91,16.91,0,0,1,490.92,72h20.63A12.44,12.44,0,0,1,524,84.45v4.47A16.91,16.91,0,0,1,540.92,72h20.63A12.44,12.44,0,0,1,574,84.45Z"/><path class="cls-1" d="M71,112v32a10.25,10.25,0,0,1-20,0V72H85L71,49H51V23A23,23,0,0,0,28,0V112H14L0,135H28v9a33.06,33.06,0,0,0,66,0v-9Z"/><path class="cls-1" d="M171,72H149a38.58,38.58,0,0,0-31,40H101L87,135H194V60C189.64,67.14,181,72,171,72Zm0,40H141a23.15,23.15,0,0,1,3-11,22.57,22.57,0,0,1,5-6h22Z"/><path class="cls-1" d="M659,103c2,19-5,33-18,33-11,0-14.24-11.54-15-13V83a23,23,0,0,0-23-23v52H588l-14,23h32c6.86,14.13,20.35,23.84,34,23a32.3,32.3,0,0,0,21-10C671,137,675,109,659,103Z"/><path class="cls-1" d="M440.87,135A34.48,34.48,0,0,1,434,148a32.3,32.3,0,0,1-21,10c-13.65.84-27.14-8.87-34-23H347l14-23h15V60a23,23,0,0,1,23,23v40c.76,1.46,4,13,15,13a15.28,15.28,0,0,0,9.14-2.88c3.79-2.72,6.5-7.27,8-13.08a49.64,49.64,0,0,0,.89-17,15.32,15.32,0,0,1,8.9,9C443.58,118.58,443.19,127.32,440.87,135Z"/><circle class="cls-1" cx="246.5" cy="166.5" r="12"/><circle class="cls-1" cx="280.5" cy="166.5" r="12"/><circle class="cls-1" cx="473.5" cy="166.5" r="12"/><circle class="cls-1" cx="507.5" cy="166.5" r="12"/><circle class="cls-1" cx="614.5" cy="29.5" r="12"/><circle class="cls-1" cx="387.5" cy="29.5" r="12"/><path class="cls-1" d="M214.06,208.9a25.77,25.77,0,0,1-8.38,1.76q10.95,3.51,12.78,9.61a12,12,0,0,1,.54,3.39q0,7.25-8.18,11.78a30.21,30.21,0,0,1-14.74,3.79A24.25,24.25,0,0,1,193,239a63.86,63.86,0,0,1-18-4.73,23.51,23.51,0,0,1-14.33,4.94,24.68,24.68,0,0,1-2.91-.2,11.72,11.72,0,0,1-5.48-1.95,5.78,5.78,0,0,1,.07-9.83A10.17,10.17,0,0,1,158,225.7a17.53,17.53,0,0,1,5.81,1.07,30,30,0,0,1,4.26,2.08q3.85,2.07,5.55,2.87,4.45-4.26,11.76-18.19,7.65-14.59,13.66-21.43l3.86-4.4a64.77,64.77,0,0,0-10.82-.88q-20.43,0-29.69,8.93-5.07,4.88-5.07,9.8c0,3.16,1.6,5.23,4.8,6.23a10.62,10.62,0,0,0,3.05.47,9,9,0,0,0,7-3.25c1.71-1.89,2.46-3.42,2.23-4.59,0-.32.23-.48.68-.48s.74.34.74,1V205a9.89,9.89,0,0,1-3.72,6.43,11.08,11.08,0,0,1-7.16,2.5,10.41,10.41,0,0,1-3.45-.54q-7.17-2.51-7.17-9.13,0-7.64,8.32-13.05a36.82,36.82,0,0,1,15.28-5.61,82.19,82.19,0,0,1,11.83-.88,69.61,69.61,0,0,1,14.81,1.49q2.91-2.64,5.07-2.64c.32,0,.47.07.47.2s-.38.66-1.14,1.15a4.89,4.89,0,0,0-2,1.83q15.36,3.93,15.35,12.05Q222.31,205.58,214.06,208.9Zm-41.92,24.18q-9.94-5.28-13.59-5.28a5.3,5.3,0,0,0-3.45,1.1,3.79,3.79,0,0,0-1.55,3.22,4.44,4.44,0,0,0,1.82,3.77,7.23,7.23,0,0,0,4.06,1.38A18.84,18.84,0,0,0,172.14,233.08Zm40.37-42.54a32.28,32.28,0,0,0-6.36-2.09q-3.65,5.07-13.59,22.14Q184,225.41,179,230.7a24.43,24.43,0,0,1-2.57,2.44,48.27,48.27,0,0,0,18.73,4.13,21.86,21.86,0,0,0,12.31-3.73q6.42-4.28,6.42-10.64,0-5.49-5.88-8.27a67.82,67.82,0,0,0-8.05-2.92q-4.2-1.28-4.53-2c0-.9.83-1.35,2.5-1.35.77,0,2,.06,3.58.2s2.87.2,3.72.2a13.82,13.82,0,0,0,8.52-3.55q4.26-3.48,4.26-7.67Q218.05,193.12,212.51,190.54Z"/><path class="cls-1" d="M242,223.94a49.33,49.33,0,0,1-4.6,8.41q-3.45,4.44-8.31,4.44a6.21,6.21,0,0,1-4.64-1.82,6.62,6.62,0,0,1-1.86-4.65q-.06-6.27,5.21-12.61,4.32-5.19,8.93-5.19c2.52,0,3.78,1.07,3.78,3.23q0,3.69-4.89,7.39a16.45,16.45,0,0,1-4,2,13.48,13.48,0,0,1-4.32,1,12.94,12.94,0,0,0-.88,4.84q0,4.37,3.19,4.37,6.18,0,11.21-11.44c.27-.62.63-.94,1.08-.94.23,0,.34.14.34.41A1.93,1.93,0,0,1,242,223.94Zm-3.31-8.45c0-1-.36-1.48-1.08-1.48-1.27,0-3.18,1.55-5.75,4.66a39.06,39.06,0,0,0-4.06,6.36c2.34,0,4.74-1,7.2-3S238.68,217.79,238.68,215.49Z"/><path class="cls-1" d="M265.59,224.16q-6,12.28-10.21,12.63a3.21,3.21,0,0,1-3-1.29,5.72,5.72,0,0,1-1.05-3.48,14.2,14.2,0,0,1,.68-4q-5.28,8.79-9.47,8.79a3.2,3.2,0,0,1-3-2,8,8,0,0,1-.81-3.74q0-6.45,5.68-13.33a15.12,15.12,0,0,1,4.74-3.77,12.12,12.12,0,0,1,5.68-1.53,6.75,6.75,0,0,1,5.27,2.17,1.62,1.62,0,0,1,.47,1.08c0,.76-.4,1.06-1.21.88a3,3,0,0,0-3.11-2.44q-2.85,0-6.7,4a34.18,34.18,0,0,0-4.93,6.46c-1.9,3.18-2.84,5.83-2.84,8,0,1.54.56,2.31,1.69,2.31q4.13,0,10.61-12.49a19.05,19.05,0,0,1,2-3.33,3,3,0,0,1,2.57-1,8.26,8.26,0,0,1,1.35.21,3.53,3.53,0,0,0,1.49.06,23.94,23.94,0,0,0-3.72,6,33.23,33.23,0,0,0-2.57,6.63,11.23,11.23,0,0,0-.27,2.3c0,1.17.32,1.76.95,1.76q3.11.14,8.72-11.43c.23-.45.5-.68.81-.68s.34.14.34.41A1.94,1.94,0,0,1,265.59,224.16Z"/><path class="cls-1" d="M285.26,231.92c-2.16,3.07-4.26,4.6-6.28,4.6q-3.8,0-3.79-4.8a12.64,12.64,0,0,1,.67-3.85q-4.94,8.65-9.12,8.65-4.39,0-4.4-4.26,0-1.75,2.44-6.62-.75.06-.75-.54s1.71-3.5,5.14-10.35a2.72,2.72,0,0,1,2.64-1.42h4.12A14.85,14.85,0,0,0,271.6,219q-1.22,2.43-4.25,8.72a12.24,12.24,0,0,0-1.42,5.07c0,1.49.51,2.24,1.55,2.24s2.32-.88,3.85-2.64q3.39-3.92,10.08-17.65a2.63,2.63,0,0,1,2.64-1.42h3.65c-1.49,1.22-3,3.45-4.67,6.69q-4,8-4.53,10.76a10.17,10.17,0,0,0-.2,1.62c0,1.58.49,2.39,1.49,2.43q3.58.07,8.92-11.29c.23-.45.48-.68.75-.68s.33.18.33.55a2.48,2.48,0,0,1-.06.54c-.18.45-.85,1.72-2,3.82A43.7,43.7,0,0,1,285.26,231.92Z"/><path class="cls-1" d="M305.41,210.9q.48,0,.48.6c0,.59-.21.88-.61.88h-3.92a46.94,46.94,0,0,1-9,11.16,53,53,0,0,0-1.55,6.9,9.34,9.34,0,0,0-.21,1.62c0,1.8.75,2.71,2.24,2.71q3.92,0,9.4-11.16.33-.75.81-.75c.18,0,.27.14.27.41a1.61,1.61,0,0,1-.21.74q-3.72,8-6.55,10.69a6.42,6.42,0,0,1-4.6,1.89,4.62,4.62,0,0,1-3.45-1.38,5.66,5.66,0,0,1-1.35-4.1q0-5.88,5.34-18.73H289c-.31,0-.47-.22-.47-.67s.2-.81.61-.81h4.05q2.31-5,4.94-9.61,3-5.34,6.36-5.34c1.53,0,2.3,1,2.3,3.05q0,3.51-4.6,11.9Zm-5.61,1.48h-3.18c-.67,1.63-1.89,4.62-3.65,9A46.25,46.25,0,0,0,299.8,212.38Zm4.26-8.38a11.35,11.35,0,0,0,1.08-4.4c0-.72-.16-1.08-.47-1.08-.54,0-1.4.84-2.57,2.5a83.26,83.26,0,0,0-4.8,9.88h3.38C301.81,208.87,302.93,206.57,304.06,204Z"/><path class="cls-1" d="M329.89,224.28q-3.86,7.78-6,10-3,3.18-9.94,5.68-10,18-21,18-6.42,0-6.42-4.65,0-5.34,7-8.9a41.79,41.79,0,0,1,8.66-3l8.11-2.05q2.63-4.53,5.8-15.24a72.68,72.68,0,0,1-4.86,7.78c-2.44,3.11-4.78,4.66-7,4.66q-4.39,0-4.39-4.26a7.92,7.92,0,0,1,.81-3.45c.36-.67.9-1.73,1.62-3.17-.49,0-.74-.14-.74-.54q0-.07,5.14-10.35a2.7,2.7,0,0,1,2.63-1.42h4.13a12.81,12.81,0,0,0-2.5,2.43q-2.64,4.47-6.09,12a13.16,13.16,0,0,0-1.42,5.07c0,1.49.52,2.24,1.56,2.24s2.32-.88,3.85-2.64q4.67-5.42,10.62-17.65a2.62,2.62,0,0,1,2.63-1.42h3.66a9,9,0,0,0-3,3.45,79.14,79.14,0,0,0-4.19,10.34q-1.75,5.35-3.52,10.69a21.14,21.14,0,0,0,9.94-7,62.93,62.93,0,0,0,4.06-7.24c.22-.45.45-.68.68-.68s.4.18.4.55A2.1,2.1,0,0,1,329.89,224.28Zm-20.76,17.18-7.23,1.89q-8.92,2.44-11.84,6a7.33,7.33,0,0,0-1.89,4.46q0,2.78,3.25,2.78,3.85,0,9.12-4.74a54,54,0,0,0,7.1-7.91C307.73,243.78,308.23,243,309.13,241.46Z"/><path class="cls-1" d="M445.72,185.88q-1.49.74-5.48,7.64a106.65,106.65,0,0,0-8.52,19,19,19,0,0,0,5.41-.47,2.55,2.55,0,0,1,.88-.21c.32,0,.47.07.47.2s-.27.4-.81.79c-1.31.93-3.49,1.52-6.56,1.79q-.87,2.72-2.57,8.18a36.87,36.87,0,0,0-1.82,9.8c0,2.8.85,4.19,2.57,4.19a3.44,3.44,0,0,0,2.09-.74q3.86-2.84,8.52-12.24a1.77,1.77,0,0,1,.82-.95c.27-.09.4,0,.4.41a2.58,2.58,0,0,1-.27,1q-2.64,5.63-4.06,8-4.26,7.11-9.4,7.1-4.93,0-4.93-6.28a38.52,38.52,0,0,1,2-10.28c.4-1.31,1.32-4,2.76-8.12q-2.43,0-22.92-.88a58.62,58.62,0,0,1-13,22.12q-11.57,12.22-26.37,12.23-9.21,0-15.56-4.46a16.2,16.2,0,0,1-7.1-13.93q0-7.23,4.47-11.56,2.7-2.64,4.53-2.71c.58,0,.88.09.88.27s-.25.46-.75.68a11.11,11.11,0,0,0-4.66,4.53,15,15,0,0,0-2.24,6.15,18.75,18.75,0,0,0-.13,2.3,12.47,12.47,0,0,0,6,11.09,22.57,22.57,0,0,0,12.71,3.38,24.45,24.45,0,0,0,5.41-.54q22.92-5.21,32.25-29.68a9.74,9.74,0,0,0-4.05,1.08,3.85,3.85,0,0,1-1.56.41c-.63,0-.72-.39-.27-1.15a5.19,5.19,0,0,1,4.19-2.57h2.64q4.19-10.55,9.87-21.91-4.53.41-13.66,1.35-16.5,2.09-20.42,14.7a13.35,13.35,0,0,0-.61,3.92,8.29,8.29,0,0,0,1.63,5.26,5.73,5.73,0,0,0,4.87,2.36,9.08,9.08,0,0,0,3-.54q2.83-1,4.67-4.91a14.34,14.34,0,0,0,1.48-5.92,3,3,0,0,0-.23-1A3.35,3.35,0,0,1,392,204a.37.37,0,0,1,.41-.41.83.83,0,0,1,.74.54,8,8,0,0,1,.74,3.45,10.3,10.3,0,0,1-2.19,6.26,11.68,11.68,0,0,1-5.31,4.09,10.83,10.83,0,0,1-3.65.67,9.49,9.49,0,0,1-7.34-3.24,11.09,11.09,0,0,1-2.94-7.71,12.82,12.82,0,0,1,.4-3.11,17.54,17.54,0,0,1,9.27-11.63q5.8-3.1,15.21-3.92,5.07-.35,15.15-1.08,3.11-5.61,6.63-5.62,2.43,0,2.43,2.1t-3,3.71a10.9,10.9,0,0,1-5,1.28q-1.49,2.9-4.87,11.8-2.57,6.62-3.85,10.19,3.86,0,11.49.58c5.1.38,8.9.57,11.43.57a132.45,132.45,0,0,1,5.75-13.63q5.61-11.79,9-12.95a12.78,12.78,0,0,1,3.72-.87c.27,0,.41,0,.41.13S446.35,185.56,445.72,185.88Zm-27.32-1.42c-.49-.23-1.69.85-3.58,3.24,2.88-.45,4.33-1.24,4.33-2.36C419.15,184.75,418.9,184.46,418.4,184.46Z"/><path class="cls-1" d="M440.92,230.84a6.83,6.83,0,0,0-.41,2.1c0,1.35.59,2.07,1.76,2.16q3.64.27,9.4-11.49c.22-.45.47-.68.74-.68s.34.16.34.48a1.86,1.86,0,0,1-.2.81q-5.76,12.38-10.62,12.37-4.46,0-4.46-4.87a10.91,10.91,0,0,1,.81-3.92l4.33-11.09a2,2,0,0,0,.13-.74,3.69,3.69,0,0,0-.81-2l3.72-.07c1.26,0,1.89.27,1.89.95a5,5,0,0,1-.47,1.42l-5.41,12.64C441.39,229.51,441.14,230.17,440.92,230.84ZM453.29,207a3.24,3.24,0,0,1-1.15,2,3.14,3.14,0,0,1-2.09.81,2.26,2.26,0,0,1-1.83-.81,2.48,2.48,0,0,1-.54-2,3,3,0,0,1,1.11-2,3.3,3.3,0,0,1,2.13-.81,2.35,2.35,0,0,1,1.86.81A2.21,2.21,0,0,1,453.29,207Z"/><path class="cls-1" d="M451.91,225.62c-.48,0-.71-.13-.71-.54a1.19,1.19,0,0,1,.13-.54l3.58-7.83a1.39,1.39,0,0,0,.21-.75,3.57,3.57,0,0,0-.88-2l3.72-.07c1.26,0,1.89.27,1.89.95a5,5,0,0,1-.47,1.42L454,228.88q-1.83,4.2-4.19,8.93a21.11,21.11,0,0,0,9.93-7,62.93,62.93,0,0,0,4.06-7.24c.23-.45.45-.68.68-.68s.34.18.34.55a1.86,1.86,0,0,1-.21.87q-3.65,7.44-6.08,10-3,3.18-9.87,5.68-10,18-21,18-6.42,0-6.42-4.67,0-5.35,7-8.94a41.89,41.89,0,0,1,8.65-3l8.12-2c.41-.72,1.12-2,2.15-3.93S449.66,230.22,451.91,225.62Zm-8.15,15.84-7.17,1.89q-9.06,2.43-11.83,6a7.35,7.35,0,0,0-1.9,4.46c0,1.85,1.06,2.78,3.18,2.78q4,0,9.2-4.74a52.42,52.42,0,0,0,7-7.91C442.41,243.78,442.9,243,443.76,241.46ZM465.39,207a3.23,3.23,0,0,1-1.14,2,3.17,3.17,0,0,1-2.1.81,2.26,2.26,0,0,1-1.83-.81,2.48,2.48,0,0,1-.54-2,2.92,2.92,0,0,1,1.12-2,3.26,3.26,0,0,1,2.13-.81,2.32,2.32,0,0,1,1.89.81A2.28,2.28,0,0,1,465.39,207Z"/><path class="cls-1" d="M488.32,224.16q-6,12.28-10.21,12.63a3.21,3.21,0,0,1-3-1.29,5.72,5.72,0,0,1-1.05-3.48,13.85,13.85,0,0,1,.68-4q-5.28,8.79-9.47,8.79a3.2,3.2,0,0,1-3-2,8,8,0,0,1-.81-3.74q0-6.45,5.68-13.33a15.12,15.12,0,0,1,4.74-3.77,12.12,12.12,0,0,1,5.68-1.53,6.75,6.75,0,0,1,5.27,2.17,1.67,1.67,0,0,1,.47,1.08c0,.76-.4,1.06-1.21.88a3,3,0,0,0-3.11-2.44q-2.85,0-6.7,4a34.18,34.18,0,0,0-4.93,6.46c-1.9,3.18-2.84,5.83-2.84,8,0,1.54.56,2.31,1.69,2.31q4.13,0,10.61-12.49a19.05,19.05,0,0,1,2-3.33,3,3,0,0,1,2.57-1,8.42,8.42,0,0,1,1.35.21,3.53,3.53,0,0,0,1.49.06,23.94,23.94,0,0,0-3.72,6A33.23,33.23,0,0,0,478,231a11.23,11.23,0,0,0-.27,2.3c0,1.17.32,1.76.95,1.76q3.11.14,8.72-11.43c.22-.45.5-.68.81-.68s.34.14.34.41A1.94,1.94,0,0,1,488.32,224.16Z"/><path class="cls-1" d="M507.38,195.14q-2.16,2.24-9.19,15.39-6.57,12.36-8.73,17.69a12.58,12.58,0,0,0-1.08,4.45c0,1.76.59,2.7,1.76,2.84q2.43.35,6.42-4.4a30.81,30.81,0,0,0,5.08-8.38,13.31,13.31,0,0,0,1.08-4.87q0-3.86-3.65-3.52c-.95.1-1.42-.14-1.42-.7s.45-.78,1.35-.78c.27,0,.61,0,1,.06q5.69.83,5.68,7.15a17.38,17.38,0,0,1-3.31,9.79c-2.26,3.4-4.91,5.51-8,6.32a15.18,15.18,0,0,1-3.79.61c-3.87,0-5.81-1.75-5.81-5.27q0-3.32,6.36-15.35,2.63-5.28,8.58-17c1.53-3,3.14-4.39,4.8-4.26a9.35,9.35,0,0,1,1.36.2A3.36,3.36,0,0,0,507.38,195.14Z"/><path class="cls-1" d="M508.53,230.84a6.78,6.78,0,0,0-.4,2.1c0,1.35.58,2.07,1.76,2.16q3.65.27,9.39-11.49c.23-.45.48-.68.75-.68s.34.16.34.48a1.75,1.75,0,0,1-.21.81q-5.74,12.38-10.61,12.37-4.47,0-4.47-4.87a10.93,10.93,0,0,1,.82-3.92l4.32-11.09a2,2,0,0,0,.14-.74,3.69,3.69,0,0,0-.81-2l3.72-.07c1.26,0,1.89.27,1.89.95a5,5,0,0,1-.47,1.42l-5.41,12.64C509,229.51,508.76,230.17,508.53,230.84ZM520.91,207a3.29,3.29,0,0,1-1.15,2,3.15,3.15,0,0,1-2.1.81,2.24,2.24,0,0,1-1.82-.81,2.44,2.44,0,0,1-.55-2,3,3,0,0,1,1.12-2,3.26,3.26,0,0,1,2.13-.81,2.35,2.35,0,0,1,1.86.81A2.27,2.27,0,0,1,520.91,207Z"/></g></g></svg>